<svg width="58" height="40" fill="none" xmlns="http://www.w3.org/2000/svg"><path d="M54.186 12.125h-20.11a16.688 16.688 0 0 0-5.113-7.86C25.233 1.05 20.416-.426 15.397.108 7.35.964.912 7.222.092 14.985A16.293 16.293 0 0 0 3.48 26.783c2.523 3.229 6.143 5.461 10.218 6.307l4.287 4.129c.36.347.838.53 1.325.53.242 0 .487-.045.72-.138.704-.281 1.16-.937 1.16-1.67v-2.89a17.942 17.942 0 0 0 2.058-.574v.114c0 2.026 1.71 3.673 3.814 3.673h6.405l3.412 3.286c.305.294.71.45 1.123.45.205 0 .412-.038.61-.117a1.53 1.53 0 0 0 .983-1.416v-2.203h14.59c2.104 0 3.815-1.647 3.815-3.673V15.798c0-2.025-1.711-3.673-3.814-3.673zM20.122 31.473a.884.884 0 0 0-.75.861v3.607c0 .02 0 .039-.037.054-.037.014-.05.002-.066-.013L14.79 31.67a.918.918 0 0 0-.465-.24c-3.747-.717-7.084-2.74-9.394-5.698a14.596 14.596 0 0 1-3.033-10.569c.354-3.348 1.928-6.532 4.432-8.967a15.745 15.745 0 0 1 9.267-4.35 16.973 16.973 0 0 1 1.8-.095c3.839 0 7.463 1.326 10.354 3.819 3.294 2.84 5.184 6.911 5.184 11.167 0 7.264-5.389 13.462-12.814 14.737zm36.062 1.118c0 1.061-.897 1.924-1.998 1.924h-15.5c-.501 0-.908.392-.908.875v2.553l-3.293-3.171a.926.926 0 0 0-.642-.256h-6.781c-1.102 0-1.998-.864-1.998-1.925v-.853c5.814-2.751 9.687-8.493 9.687-15.002 0-.966-.088-1.923-.258-2.861h19.693c1.101 0 1.998.863 1.998 1.924V32.59z" fill="#109756"/><path d="M50.952 18.912a.933.933 0 0 0-1.285 0l-9.044 8.71-4.2-4.044a.933.933 0 0 0-1.284 0 .852.852 0 0 0 0 1.237l4.841 4.662c.178.171.41.257.642.257a.923.923 0 0 0 .643-.257l9.687-9.329a.852.852 0 0 0 0-1.236zm-33.577 4.411h-.001c-.502 0-.91.392-.91.875v.001c0 .483.408.876.91.876s.91-.392.91-.875v-.001c0-.484-.408-.876-.91-.876zM21.42 10.04a5.81 5.81 0 0 0-4.047-1.643c-3.171 0-5.75 2.486-5.75 5.54 0 .483.406.874.907.874.502 0 .908-.391.908-.874 0-2.09 1.766-3.79 3.935-3.79 1.024 0 2.005.401 2.762 1.13.757.73 1.174 1.674 1.174 2.66 0 1.661-1.153 3.154-2.803 3.63-1.22.353-2.04 1.406-2.04 2.622v.278c0 .483.406.875.908.875.501 0 .908-.392.908-.875v-.278c0-.437.3-.817.746-.946 2.413-.697 4.098-2.878 4.098-5.306 0-1.453-.606-2.837-1.707-3.897z" fill="#109756"/></svg>