<svg width="22" height="21" fill="none" xmlns="http://www.w3.org/2000/svg"><path d="M21.985 17.284a1.611 1.611 0 0 0-.837-1.193l-5.428-2.983a1.765 1.765 0 0 0-2.05.259l-1.07 1.02a.811.811 0 0 1-1.046.056 30.455 30.455 0 0 1-2.466-2.117A30.03 30.03 0 0 1 6.869 9.97a.723.723 0 0 1 .059-.999l1.069-1.02a1.57 1.57 0 0 0 .271-1.958L5.143.814a1.693 1.693 0 0 0-1.25-.8 1.737 1.737 0 0 0-1.426.462L.857 2.013C-.268 3.087-.286 5.05.806 7.541c1.05 2.396 3.008 5.033 5.515 7.426 2.506 2.393 5.27 4.262 7.779 5.264 1.285.513 2.435.769 3.407.769 1.002 0 1.813-.273 2.384-.818l1.61-1.537c.378-.36.554-.856.484-1.36zm-6.62-3.587l5.427 2.983c.269.148.446.4.486.694a.903.903 0 0 1-.184.683l-7.213-3.93.293-.28c.315-.3.805-.362 1.19-.15zM3.799.69a.983.983 0 0 1 .726.464l3.125 5.18a.912.912 0 0 1-.157 1.138l-.27.256L3.086.865A1.007 1.007 0 0 1 3.799.69zM19.387 19.7c-.893.853-2.72.817-5.012-.098-2.426-.968-5.108-2.786-7.55-5.117-2.443-2.332-4.347-4.892-5.362-7.207C.505 5.09.467 3.347 1.361 2.494l1.195-1.141 4.146 6.873-.278.265a1.38 1.38 0 0 0-.11 1.907 30.72 30.72 0 0 0 2.27 2.409 31.23 31.23 0 0 0 2.523 2.166 1.548 1.548 0 0 0 1.998-.105l.253-.242 7.223 3.935-1.194 1.14z" fill="#109756"/></svg>