<svg width="86" height="86" viewBox="0 0 86 86" fill="none" xmlns="http://www.w3.org/2000/svg">
<circle cx="43" cy="43" r="43" fill="#68A0E6"/>
<path d="M42.5 19L21 27.6222V35.7582L23.6035 34.7215V62H61.3965V34.7215L64 35.7583V27.6223L42.5 19ZM38.7207 59.4813H31.162V51.8412H33.6815V54.3599H36.2011V51.8412H38.7206V59.4813H38.7207ZM38.7207 49.3224H31.162V41.7661H33.6815V44.2848H36.2011V41.7661H38.7206V49.3224H38.7207ZM48.7988 59.4813H41.2403V51.8412H43.7597V54.3599H46.2793V51.8412H48.7988V59.4813ZM53.8379 59.4813H51.3183V49.3224H41.2403V39.2475H31.1621V36.9806H53.838V59.4813H53.8379ZM58.8769 59.4813H56.3574V34.4619H28.6426V59.4813H26.1231V33.7182L42.5 27.1962L58.8769 33.7181V59.4813ZM61.4805 32.0437L42.5 24.4849L23.5195 32.0437V29.3256L42.5 21.7139L61.4805 29.3256V32.0437Z" fill="white"/>
</svg>
