<svg width="86" height="86" viewBox="0 0 86 86" fill="none" xmlns="http://www.w3.org/2000/svg">
<circle cx="43" cy="43" r="43" fill="#68A0E6"/>
<path d="M49.8341 20H24.9833V66H61.0167V31.1826L49.8341 20ZM50.2833 22.6174L58.3993 30.7333H50.2833V22.6174ZM26.5167 64.4667V21.5333H48.75V32.2667H59.4833V64.4667H26.5167Z" fill="white"/>
<path d="M32.65 33.0333H39.55C39.974 33.0333 40.3167 32.6906 40.3167 32.2667C40.3167 31.8427 39.974 31.5 39.55 31.5H32.65C32.226 31.5 31.8833 31.8427 31.8833 32.2667C31.8833 32.6906 32.226 33.0333 32.65 33.0333Z" fill="white"/>
<path d="M32.65 39.1666H36.4833C36.9073 39.1666 37.25 38.8239 37.25 38.4C37.25 37.976 36.9073 37.6333 36.4833 37.6333H32.65C32.226 37.6333 31.8833 37.976 31.8833 38.4C31.8833 38.8239 32.226 39.1666 32.65 39.1666Z" fill="white"/>
<path d="M44.15 39.1666H49.5167C49.9406 39.1666 50.2833 38.8239 50.2833 38.4C50.2833 37.976 49.9406 37.6333 49.5167 37.6333H44.15C43.726 37.6333 43.3833 37.976 43.3833 38.4C43.3833 38.8239 43.726 39.1666 44.15 39.1666Z" fill="white"/>
<path d="M39.7723 37.8633C39.6267 38.0013 39.55 38.1998 39.55 38.3999C39.55 38.5993 39.6267 38.7986 39.7723 38.9443C39.9172 39.0823 40.1173 39.1666 40.3167 39.1666C40.516 39.1666 40.7153 39.0892 40.861 38.9366C40.999 38.7978 41.0833 38.5993 41.0833 38.3999C41.0833 38.1998 40.999 38.0005 40.861 37.8556C40.5697 37.5719 40.056 37.5719 39.7723 37.8633Z" fill="white"/>
<path d="M53.35 39.1666C53.5493 39.1666 53.7487 39.0822 53.8943 38.9442C54.0323 38.7986 54.1167 38.5992 54.1167 38.3999C54.1167 38.1998 54.0323 38.0005 53.8943 37.8556C53.603 37.5719 53.097 37.5719 52.8057 37.8556C52.6669 38.0005 52.5833 38.1998 52.5833 38.3999C52.5833 38.5992 52.6669 38.7986 52.8057 38.9442C52.9506 39.0822 53.1507 39.1666 53.35 39.1666Z" fill="white"/>
<path d="M41.85 43.7666H36.4833C36.0594 43.7666 35.7167 44.1093 35.7167 44.5333C35.7167 44.9572 36.0594 45.2999 36.4833 45.2999H41.85C42.274 45.2999 42.6167 44.9572 42.6167 44.5333C42.6167 44.1093 42.274 43.7666 41.85 43.7666Z" fill="white"/>
<path d="M32.65 45.3001C32.8493 45.3001 33.0487 45.2158 33.1943 45.0778C33.3392 44.9321 33.4167 44.7328 33.4167 44.5334C33.4167 44.3333 33.3392 44.134 33.1943 43.9891C32.903 43.7055 32.397 43.7055 32.1057 43.9891C31.96 44.134 31.8833 44.3257 31.8833 44.5334C31.8833 44.7328 31.9669 44.9321 32.1057 45.0778C32.2506 45.2158 32.4507 45.3001 32.65 45.3001Z" fill="white"/>
<path d="M35.0612 50.7939C33.3822 51.6679 32.8171 53.34 32.6109 55.0734C32.2935 54.8074 31.9761 54.5421 31.6587 54.2761C30.9074 53.6467 29.8172 54.7254 30.5746 55.3609C31.2915 55.9612 32.0091 56.5623 32.7259 57.1634C33.2304 57.5858 34.0116 57.319 34.0346 56.6213C34.0906 54.9607 34.1688 52.9858 35.8347 52.1187C36.7103 51.6625 35.9359 50.3385 35.0612 50.7939Z" fill="white"/>
<path d="M40.1595 53.8521C39.0977 54.0982 37.8894 55.449 37.1419 53.9333C36.7057 53.0486 35.3824 53.8245 35.8179 54.7069C36.2142 55.5111 36.9679 56.0746 37.8641 56.1881C38.3195 56.2456 38.7312 56.1812 39.1582 56.0148C39.4718 55.8929 40.6433 55.012 40.8963 55.4651C41.3777 56.3269 42.7025 55.5541 42.2203 54.6916C41.8086 53.954 40.9752 53.6627 40.1595 53.8521Z" fill="white"/>
<path d="M55.8378 46.4599C55.6592 46.3962 55.5802 46.2613 55.5488 46.1862C55.5181 46.111 55.4775 45.9592 55.5595 45.7875C55.9314 45.004 55.7757 44.1016 55.1624 43.4875C54.5483 42.8749 53.6452 42.7185 52.8632 43.0904C52.6899 43.1724 52.5381 43.1318 52.4637 43.1011C52.3878 43.0697 52.2537 42.9907 52.19 42.8121C51.8995 41.994 51.1512 41.4666 50.2833 41.4666C49.4155 41.4666 48.6672 41.994 48.3766 42.8121C48.313 42.9907 48.1781 43.0697 48.1029 43.1011C48.0286 43.1318 47.876 43.1732 47.7043 43.0904C46.9215 42.7201 46.0191 42.8742 45.4043 43.4875C44.7909 44.1016 44.6353 45.004 45.0071 45.7867C45.0884 45.9592 45.0485 46.111 45.0179 46.1862C44.9864 46.2621 44.9075 46.3962 44.7288 46.4599C43.9108 46.7504 43.3833 47.4987 43.3833 48.3666C43.3833 49.2344 43.9108 49.9827 44.7288 50.2733C44.9075 50.3369 44.9864 50.4718 45.0179 50.547C45.0485 50.6221 45.0892 50.7739 45.0071 50.9456C44.6353 51.7292 44.7909 52.6315 45.4043 53.2456C45.701 53.5416 46.0651 53.7286 46.45 53.8038V63.2506L50.2833 59.4173L54.1167 63.2506V53.803C54.5015 53.7286 54.8665 53.5423 55.1624 53.2456C55.7757 52.6315 55.9314 51.7292 55.5595 50.9464C55.4783 50.7739 55.5181 50.6221 55.5488 50.547C55.5802 50.4711 55.6592 50.3369 55.8378 50.2733C56.6559 49.9827 57.1833 49.2344 57.1833 48.3666C57.1833 47.4987 56.6559 46.7504 55.8378 46.4599ZM50.2833 57.2492L47.9833 59.5492V53.6014C47.9902 53.6021 47.9971 53.6029 48.0033 53.6044C48.0416 53.6121 48.0784 53.6213 48.1029 53.632C48.1405 53.6481 48.1934 53.6757 48.244 53.721C48.2954 53.767 48.3452 53.8314 48.3766 53.9211C48.6672 54.7391 49.4155 55.2666 50.2833 55.2666C51.1512 55.2666 51.8995 54.7391 52.19 53.9211C52.2215 53.8314 52.2713 53.767 52.3227 53.721C52.374 53.675 52.4262 53.6474 52.4637 53.632C52.4883 53.6221 52.5243 53.6121 52.5626 53.6044C52.5688 53.6037 52.5757 53.6021 52.5826 53.6014V59.5484L50.2833 57.2492ZM55.3242 48.8289C54.786 49.0198 54.3513 49.4322 54.1328 49.9605C53.9135 50.4887 53.9281 51.0882 54.1742 51.6057C54.3083 51.8871 54.1519 52.0887 54.0776 52.1623C54.017 52.2244 53.8621 52.3341 53.6475 52.2927L53.4788 52.2398C53.409 52.2083 53.3354 52.1915 53.2634 52.1692C53.2097 52.1524 53.1576 52.1294 53.1031 52.1163C53.028 52.0995 52.9506 52.0949 52.8739 52.0864C52.8118 52.0795 52.7512 52.0665 52.6891 52.065C52.6148 52.0634 52.5412 52.0757 52.4676 52.0818C52.4039 52.088 52.3395 52.0864 52.2759 52.0987C52.1402 52.124 52.0068 52.1631 51.8772 52.2168C51.8772 52.2168 51.8765 52.2168 51.8757 52.2175C51.842 52.2313 51.8136 52.2536 51.7806 52.2689C51.6856 52.3149 51.5897 52.3601 51.5031 52.4199C51.3996 52.4912 51.3053 52.5756 51.2171 52.6645C51.2072 52.6745 51.1941 52.6821 51.1842 52.6929C50.991 52.896 50.8399 53.1398 50.7441 53.4089C50.6414 53.7018 50.3876 53.7332 50.2833 53.7332C50.1791 53.7332 49.9253 53.7018 49.821 53.4074C49.7252 53.1375 49.5742 52.8945 49.381 52.6913C49.3733 52.6829 49.3633 52.6775 49.3549 52.6691C49.2644 52.5771 49.1678 52.492 49.0613 52.4184C48.9785 52.3609 48.8857 52.318 48.7945 52.2735C48.7584 52.2559 48.7262 52.2313 48.6887 52.216C48.6879 52.216 48.6879 52.2152 48.6879 52.2152C48.6718 52.2083 48.6549 52.2068 48.6388 52.2007C48.5269 52.1577 48.4134 52.1217 48.2977 52.0995C48.2041 52.0811 48.1114 52.0772 48.0178 52.0719C47.9833 52.0703 47.9488 52.0619 47.9143 52.0619C47.912 52.0619 47.9105 52.0627 47.9082 52.0627C47.6215 52.0619 47.3432 52.1179 47.1055 52.2336L46.9315 52.2881C46.7114 52.3379 46.5512 52.2244 46.4883 52.1608C46.414 52.0872 46.2576 51.8863 46.3917 51.6034C46.6371 51.0867 46.6524 50.4879 46.4331 49.9589C46.2146 49.4315 45.7799 49.0182 45.2417 48.8273C44.9481 48.7246 44.9167 48.4708 44.9167 48.3666C44.9167 48.2623 44.9481 48.0085 45.2425 47.9043C45.7807 47.7134 46.2154 47.3009 46.4339 46.7727C46.6532 46.2444 46.6386 45.6449 46.3925 45.1274C46.2583 44.846 46.4147 44.6444 46.4891 44.5708C46.5627 44.4964 46.7628 44.3416 47.0465 44.4742C47.5624 44.7195 48.162 44.7364 48.691 44.5156C49.2184 44.2971 49.6317 43.8624 49.8226 43.3242C49.9253 43.0313 50.1791 42.9999 50.2833 42.9999C50.3876 42.9999 50.6414 43.0313 50.7456 43.3257C50.9373 43.8639 51.349 44.2986 51.8772 44.5171C52.4047 44.7379 53.005 44.7218 53.5225 44.4757C53.8031 44.34 54.0063 44.498 54.0791 44.5723C54.1535 44.6459 54.3099 44.8468 54.1757 45.1297C53.9304 45.6464 53.915 46.2452 54.1343 46.7742C54.3528 47.3017 54.7875 47.7149 55.3257 47.9058C55.6186 48.0085 55.65 48.2623 55.65 48.3666C55.65 48.4708 55.6186 48.7246 55.3242 48.8289Z" fill="white"/>
</svg>
