<svg width="46" height="46" fill="none" xmlns="http://www.w3.org/2000/svg"><path d="M45.442 25.614c-.257-.931-.499-1.811-.499-2.614 0-.803.242-1.683.5-2.614.408-1.482.83-3.015.325-4.505-.524-1.55-1.83-2.563-3.092-3.541-.757-.587-1.472-1.141-1.936-1.751-.472-.622-.806-1.452-1.158-2.331C39 6.814 38.4 5.32 37.057 4.382c-1.322-.924-2.972-1.013-4.565-1.098-.993-.053-1.933-.104-2.72-.349-.736-.229-1.498-.704-2.304-1.207C26.17.918 24.7 0 22.999 0c-1.7 0-3.172.918-4.468 1.729-.806.503-1.566.979-2.303 1.207-.788.245-1.728.296-2.722.349-1.594.086-3.242.174-4.565 1.098-1.344.938-1.944 2.431-2.525 3.875-.354.879-.688 1.71-1.16 2.332-.463.612-1.178 1.166-1.935 1.754-1.262.979-2.566 1.99-3.09 3.538-.505 1.491-.083 3.023.325 4.506.257.931.499 1.81.499 2.613 0 .803-.242 1.683-.5 2.614-.407 1.482-.829 3.015-.324 4.507.524 1.548 1.829 2.561 3.09 3.539.758.586 1.473 1.141 1.936 1.751.472.622.806 1.452 1.16 2.332.58 1.444 1.181 2.938 2.526 3.878 1.321.922 2.97 1.01 4.563 1.095.994.053 1.934.104 2.72.349.737.229 1.498.704 2.303 1.206 1.297.809 2.768 1.728 4.47 1.728s3.174-.919 4.473-1.729c.805-.502 1.565-.977 2.302-1.206.787-.245 1.726-.296 2.72-.349 1.594-.085 3.242-.173 4.563-1.095 1.347-.94 1.947-2.436 2.528-3.881.353-.878.686-1.708 1.156-2.328.464-.61 1.179-1.165 1.936-1.751 1.263-.979 2.567-1.991 3.092-3.54.505-1.492.082-3.024-.327-4.507zm-1.568 3.866c-.33.978-1.348 1.766-2.423 2.6-.825.64-1.68 1.302-2.303 2.122-.633.836-1.033 1.83-1.42 2.793-.493 1.228-.96 2.387-1.816 2.985-.854.596-2.15.665-3.525.738-1.073.057-2.184.116-3.21.436-.98.307-1.888.872-2.765 1.42-1.175.734-2.284 1.426-3.413 1.426s-2.237-.692-3.412-1.426c-.876-.547-1.783-1.113-2.764-1.42-1.026-.319-2.137-.379-3.21-.436-1.374-.073-2.672-.143-3.525-.738-.856-.598-1.323-1.757-1.816-2.984-.387-.963-.788-1.958-1.422-2.794-.623-.82-1.477-1.482-2.303-2.123-1.074-.834-2.09-1.621-2.421-2.599-.31-.911.016-2.089.359-3.335.28-1.019.57-2.071.57-3.146 0-1.075-.29-2.126-.57-3.145-.344-1.246-.668-2.423-.36-3.334.332-.978 1.347-1.765 2.421-2.599.826-.641 1.681-1.304 2.303-2.125.636-.836 1.036-1.832 1.424-2.795.492-1.227.958-2.385 1.813-2.981.854-.597 2.153-.666 3.528-.739 1.072-.058 2.183-.117 3.207-.437.983-.306 1.891-.873 2.77-1.421C20.762 2.692 21.87 2 22.998 2c1.128 0 2.237.692 3.41 1.425.879.549 1.786 1.115 2.768 1.421 1.026.319 2.135.378 3.208.436 1.375.073 2.673.144 3.527.74.856.598 1.322 1.756 1.814 2.981.388.964.787 1.959 1.423 2.795.623.82 1.477 1.482 2.302 2.122 1.075.835 2.092 1.623 2.423 2.603.31.909-.017 2.086-.36 3.332-.28 1.019-.57 2.071-.57 3.146 0 1.075.288 2.127.57 3.145.344 1.246.67 2.423.36 3.334z" fill="#109756"/><path d="M22.999 8C14.729 8 8 14.729 8 23s6.729 15 14.999 15 14.999-6.729 14.999-15-6.729-15-15-15zm0 28c-7.168 0-13-5.832-13-13s5.832-13 13-13c3.697 0 7.03 1.559 9.4 4.045l-9.53 13.411-5.163-5.163a.999.999 0 1 0-1.414 1.414l6 6a.996.996 0 0 0 1.522-.128l9.896-13.928A12.92 12.92 0 0 1 35.998 23c0 7.168-5.832 13-13 13z" fill="#109756"/></svg>