<svg width="45" height="46" fill="none" xmlns="http://www.w3.org/2000/svg"><path d="M41.122 31.686v-.006l-.019-.03a1.162 1.162 0 0 1 .158-1.416c.856-.88 1.286-1.787 1.245-2.69-.025-.67-.304-1.25-.572-1.66a4.326 4.326 0 0 0-.54-.664h.001l-.005-.005c-.44-.393-.534-1.027-.212-1.51l.003-.004c.066-.107.386-.646.488-1.346.102-.705-.018-1.578-.84-2.324-.484-.439-1.187-.734-2.002-.925-.818-.19-1.759-.279-2.731-.294a25.77 25.77 0 0 0-5.522.555h-.004a2.807 2.807 0 0 1-.12.028c-.535.087-1.098.203-1.688.338l-.007.001-.007.003c-.587.21-1.388.18-1.986-.351-.602-.531-.889-1.412-.813-2.794.075-1.381.511-3.237 1.323-5.683.535-1.614.815-3.036.835-4.23.02-1.193-.22-2.168-.736-2.876-.869-1.195-2.307-1.34-2.828-1.35l-.073-.001-.038.063a1.55 1.55 0 0 0-.156.491 5.402 5.402 0 0 0-.073.705 8.92 8.92 0 0 0 .088 1.675v.003c.035.2.017.399-.052.578v.002c-.092.249-1.198 3.258-2.825 6.631-.813 1.687-1.755 3.463-2.763 5.03-1.01 1.568-2.082 2.918-3.152 3.762l-.008.005-.006.007c-1.163 1.243-1.654 2.7-1.83 3.353l-.01.035.011.034c.113.364.178.756.178 1.156v15.641c0 .28-.028.56-.084.82l-.029.135.136.016.978.115.008.001h.008c.28.037 6.47.816 12.595.683h.129c2.927.23 5.32.164 7.089-.214 2.2-.465 3.686-1.303 4.362-2.505l-.11-.06m2.207-8.928l-1.82 6.428m1.82-6.428l.003.006a3.605 3.605 0 0 1 .194.44c.108.294.223.705.248 1.183.07 1.313-.568 2.465-1.87 3.435m1.425-5.064l-1.424 5.064m-.782 3.863c.644-1.143.3-2.347.264-2.471l-.003-.01a1.306 1.306 0 0 1 .445-1.482m-.706 3.963c-.649 1.154-2.091 1.982-4.28 2.444l4.28-2.444zm.706-3.963l.075.1m-.075-.1l.076.1m-.076-.1c1.278-.952 1.888-2.068 1.82-3.328l-1.744 3.428m0 0a1.18 1.18 0 0 0-.403 1.339l.007.02v.005m0 0l-.003-.012v.003l.001.006.002.02v-.017zm4.25-6.919l-.044.056.024.066c.18.48.352 1.131.39 1.895.066 1.318-.264 3.192-2.157 4.894l-.05.044.01.066c.124.868.123 2.233-.644 3.606-1.001 1.794-2.985 3.03-5.928 3.652-1.248.267-2.748.401-4.475.401-1.003 0-2.084-.048-3.234-.134h-.012c-6.35.124-12.539-.654-12.884-.702h-.003l-2.275-.27-.047-.005-.04.027a3.911 3.911 0 0 1-2.25.709H4.026c-2.149 0-3.902-1.734-3.902-3.877V25.992c0-2.134 1.744-3.877 3.902-3.877h5.905a3.89 3.89 0 0 1 1.858.466l.117.063.056-.12c.402-.876.994-1.873 1.873-2.794a.912.912 0 0 1 .134-.118l.007-.005c.774-.592 1.575-1.562 2.36-2.727.785-1.168 1.56-2.54 2.277-3.944a77.083 77.083 0 0 0 3.294-7.457l.01-.03-.003-.03a10.066 10.066 0 0 1-.047-2.197c.085-.85.318-1.702.83-2.294a2.313 2.313 0 0 1 1.774-.803c.746 0 3.257.172 4.827 2.325 1.493 2.047 1.585 5.132.234 9.218-1.144 3.449-1.257 4.996-1.216 5.636l.009.145.142-.031a36.58 36.58 0 0 1 1.504-.305h.012l.014-.003c.094-.02 2.212-.489 4.741-.603 3.61-.173 6.182.453 7.684 1.814 2.047 1.856 1.816 4.245 1.198 5.777l-.027.066.044.057c.533.69 1.175 1.81 1.232 3.238.057 1.293-.386 2.553-1.319 3.736zM4.026 43.153h.125v-.01h5.78c.842 0 1.539-.68 1.539-1.53v-15.63c0-.839-.686-1.53-1.539-1.53H4.027c-.842 0-1.538.68-1.538 1.53v15.641c0 .839.685 1.53 1.538 1.53z" fill="#109756" stroke="#fff" stroke-width=".25"/></svg>