<svg width="24" height="17" fill="none" xmlns="http://www.w3.org/2000/svg"><path d="M23.011 0H.99C.443 0 0 .471 0 1.053v14.329c0 .581.443 1.052.989 1.052H23.01c.546 0 .989-.47.989-1.052V1.052C24 .473 23.557 0 23.011 0zM.99.827h22.02c.093 0 .175.065.202.16L12 8.443.787.987a.214.214 0 0 1 .202-.16zM.777 1.929L8.842 7.29.777 14.103V1.93zm22.447 13.447c0 .125-.096.226-.213.226H.99c-.117 0-.212-.101-.212-.226v-.22L9.54 7.782l2.252 1.499a.368.368 0 0 0 .414 0l2.252-1.5 8.765 7.375v.22zm0-1.273l-8.087-6.79 8.087-5.334v12.124z" fill="#109756"/></svg>