<svg width="22" height="21" viewBox="0 0 22 21" fill="none" xmlns="http://www.w3.org/2000/svg">
<path d="M21.985 17.2843C21.915 16.7797 21.6098 16.3446 21.1478 16.0906L15.7203 13.1077C15.0555 12.7424 14.2122 12.8488 13.6696 13.3666L12.6006 14.3871C12.3161 14.6587 11.866 14.6827 11.5539 14.4429C10.7111 13.7956 9.88132 13.0832 9.08758 12.3255C8.29383 11.5678 7.54751 10.7758 6.86932 9.97128C6.6181 9.67329 6.64324 9.24373 6.92781 8.97214L7.99681 7.95169C8.53934 7.43387 8.65091 6.62899 8.26808 5.99433L5.14313 0.813561C4.87704 0.372434 4.42128 0.0811617 3.89262 0.0143985C3.36391 -0.0525008 2.84443 0.115813 2.46735 0.475754L0.856524 2.01339C-0.267739 3.08659 -0.285795 5.04967 0.805683 7.54109C1.8552 9.93667 3.81379 12.5738 6.32056 14.9667C8.82743 17.3596 11.5902 19.2291 14.0999 20.231C15.3847 20.7438 16.5352 21 17.5066 21C18.5086 21 19.3199 20.7273 19.8908 20.1824L21.5017 18.6447C21.8787 18.2848 22.0549 17.7889 21.985 17.2843ZM15.3647 13.6973L20.7922 16.6802C21.0606 16.8277 21.2378 17.0804 21.2784 17.3735C21.3125 17.6195 21.2455 17.8617 21.0938 18.0568L13.8807 14.1273L14.1736 13.8477C14.4887 13.547 14.9786 13.4851 15.3647 13.6973ZM3.79911 0.688879C4.1062 0.727658 4.37091 0.896834 4.52543 1.15305L7.65038 6.33382C7.87275 6.70242 7.80794 7.16995 7.49286 7.47065L7.22378 7.7275L3.08452 0.865085C3.25373 0.745483 3.45609 0.680534 3.66706 0.680534C3.71082 0.680534 3.75497 0.683301 3.79911 0.688879ZM19.3868 19.7013C18.4936 20.5539 16.6668 20.5181 14.3749 19.6032C11.9487 18.6348 9.26738 16.8173 6.82461 14.4856C4.38184 12.1539 2.4778 9.59442 1.46325 7.27862C0.50472 5.09081 0.467325 3.34707 1.36052 2.49443L2.55634 1.35293L6.70183 8.22573L6.42381 8.4911C5.88142 9.00888 5.83419 9.82855 6.31401 10.3978C7.00816 11.2213 7.77178 12.0317 8.58353 12.8066C9.39538 13.5815 10.2444 14.3104 11.107 14.973C11.7034 15.431 12.562 15.3859 13.1046 14.8681L13.3582 14.626L20.5813 18.561L19.3868 19.7013Z" fill="#109756"/>
</svg>
