<svg width="80" height="80" viewBox="0 0 80 80" fill="none" xmlns="http://www.w3.org/2000/svg">
<path d="M11.7153 68.284L40 40L68.2847 68.284C61.0463 75.5218 51.0456 80 40 80C28.9544 80 18.9537 75.5218 11.7153 68.284Z" fill="#FF9999"/>
<path d="M9.76702 66.1914L37.9799 37.9799L11.7153 11.716C4.47684 18.9537 0 28.9537 0 40C0 50.0167 3.68234 59.1741 9.76702 66.1914Z" fill="#FF9999"/>
<path d="M13.8072 9.76842C20.8245 3.68304 29.9826 0 40 0C50.0174 0 59.1755 3.68304 66.1928 9.76842L40 35.9598L13.8072 9.76842Z" fill="#FF9999"/>
<path d="M68.2847 11.716L42.0201 37.9799L70.233 66.1914C76.3177 59.1741 80 50.0167 80 40C80 28.9537 75.5232 18.9537 68.2847 11.716Z" fill="#FF9999"/>
</svg>
